<?xml version="1.0" encoding="utf-8"?>
<!-- Generator: Adobe Illustrator 28.1.0, SVG Export Plug-In . SVG Version: 6.00 Build 0)  -->
<svg version="1.1" id="Layer_5" xmlns="http://www.w3.org/2000/svg" xmlns:xlink="http://www.w3.org/1999/xlink" x="0px" y="0px"
	 viewBox="0 0 1500 500" style="enable-background:new 0 0 1500 500;" xml:space="preserve">
<style type="text/css">
	.st0{fill:#FEF0DD;}
	.st1{fill:#FFFFFF;stroke:#74312B;stroke-width:3;stroke-miterlimit:10;}
	.st2{fill:#EDEDEE;}
	.st3{fill:#026186;}
	.st4{fill:#A74138;}
	.st5{fill:#74312B;}
	.st6{fill:#453028;}
	.st7{fill:#F4F1EA;}
	.st8{fill:#453028;stroke:#453028;stroke-width:1.164;stroke-linecap:round;stroke-linejoin:round;stroke-miterlimit:10;}
	.st9{fill:none;stroke:#453028;stroke-width:2.1127;stroke-linecap:round;stroke-linejoin:round;stroke-miterlimit:10;}
	.st10{fill:none;stroke:#453028;stroke-width:1.0207;stroke-linecap:round;stroke-linejoin:round;stroke-miterlimit:10;}
	.st11{fill:#75312C;}
	.st12{fill:#BE7A50;}
	.st13{fill:none;}
	.st14{fill:#FEF0DD;stroke:#75312C;stroke-miterlimit:10;}
	.st15{fill:none;stroke:#75312C;stroke-width:2.1127;stroke-linecap:round;stroke-linejoin:round;stroke-miterlimit:10;}
	.st16{font-family:'Oswald-Medium';}
	.st17{font-size:42.2744px;}
	.st18{fill:none;stroke:#75312C;stroke-width:1.0207;stroke-linecap:round;stroke-linejoin:round;stroke-miterlimit:10;}
	.st19{fill:#FFFFFF;}
	.st20{font-family:'DINCondensed-Bold';}
	.st21{font-size:78px;}
	.st22{font-family:'Arial-Black';}
	.st23{font-size:38px;}
</style>
<rect x="500" y="-500" transform="matrix(4.008000e-11 -1 1 4.008000e-11 500 1000)" class="st0" width="500" height="1500"/>
<rect x="516.8" y="-483.6" transform="matrix(4.213347e-11 -1 1 4.213347e-11 500.0725 998.0139)" class="st1" width="464.5" height="1465.2"/>
<circle class="st2" cx="800.8" cy="-192.3" r="150"/>
<g>
	<g>
		<path class="st3" d="M-354,837.1h12.8l-1.6,38.4c0,0,0.1,5.3,0.3,6.7c0.1,1.4,1.4,9.6,1.4,9.6l1.4,7.4l1.3,5.4l1.6,6.3
			c0,0,1.4,3.5,1.7,4c0.3,0.5,2,3.6,2,3.6s3.1,4.2,3.5,4.5c0.3,0.3,3.1,2.6,3.9,3c0.8,0.4,2.2,1.4,4.4,2c2.1,0.6,3.7,0.6,3.7,0.6v9
			h-71.1v-9.1c0,0,3.7-1.3,5.3-2.2c1.6-0.9,4.1-2.8,4.9-3.4c0.7-0.6,3.9-4.1,5.2-6.5c1.3-2.4,3.9-7.7,4.4-9.1c0.5-1.4,2.9-8,3.3-9.4
			c0.4-1.4,2.4-8.3,2.7-9.3c0.3-1,3.3-12.5,3.3-12.5s2.4-10.9,2.8-14.9C-356.6,857.2-354,837.1-354,837.1z"/>
		<path class="st3" d="M-341.3,837.1l2.2-34.2l1.3-27l1-20.2l1.1-18.2l2.2-29.9l1.7-18.4l3-31.4l1.1-13.4l6.7,16.5l6.1,14.9
			l4.2,10.6l8.3,20.8l3.7,9.2l7.5,18.6l8.6,21.6l12.2,30.1l16.3,40.8h7.1l11.3-26.4l11.7-27.5l10-23.3l15.3-33.9l11.6-23.3l9.7-18.1
			l8.1-14.7l2.2,22l2.4,25.2l0.9,8.2l2.7,26.8l3.4,34.3l1,10c0,0,0.1,4.1,0,5.9c-0.1,1.8,0.1,3.6-0.7,7c-0.8,3.4-1.6,5.4-2.7,6.8
			c-1.1,1.4-2.7,2.5-3.7,3.2c-1,0.7-4.4,1.8-5.9,2.1c-1.5,0.3-1.8,0.4-3.6,0.6c-1.8,0.2-5,0.2-5,0.2v7.6h158h12.9h3.4
			c0,0,1.6,0.1,1.8,0.1c0.3,0.1,2.1,0.8,2.4,1.3c0.3,0.5,1.8,2.2,2,3.6c0.2,1.4,0,2.5,0,2.5H10l6.6-31l7.3-33.9H12.6l-2,8.5
			c0,0-1.5,5.9-3.4,9.9c-1.9,4-2,4.3-3.5,6.7c-1.5,2.4-2.9,4.7-5,7.3c-2.1,2.6-3.9,4.3-6.6,6.3c-2.7,2-4.6,3.5-7.3,4.8
			c-2.7,1.3-6.3,2.6-8,3.2c-1.6,0.6-4.7,1.6-9,2.1c-4.3,0.5-6.7,0.9-9.3,1c-2.6,0.1-22.6,0-22.6,0v-33.8l0.1-31.7v-29.5v-36.9v-28.6
			c0,0,0.1-9.8,1.2-12.9c1.1-3.1,2.1-5.4,3.1-6.6c0.9-1.2,3.2-2.8,4.4-3.4c1.2-0.6,5.4-1.7,7.7-2c2.2-0.3,7.5-0.7,7.5-0.7v-7.8h-132
			l-11.8,33.1l-7.4,18.4l-9.4,22.7l-11,26.3l-8,18.8l-14.3,33.5l-8.9-24.4l-12.3-33.8l-8.8-24.4l-11.5-31.6l-13.8-38.6h-69.5v7.5
			c0,0,5.3,0.3,7.7,0.8c2.5,0.5,4.4,1,6.1,2c1.7,1,3.7,2.5,4.4,3.7c0.6,1.2,1.5,3.2,1.7,4.2c0.2,1,0.6,4.4,0.7,5.6
			c0.1,1.2,0.1,6.2-0.2,9.5c-0.3,3.3-1.1,12.9-1.1,12.9l-1.6,15.6l-1.8,18.4l-2,20.3l-2.1,19l-7,99.2H-341.3z"/>
	</g>
	<path class="st3" d="M-388.5,942.4h70.9v12.5c0,0-8.8,2.1-9.2,2.3c-0.3,0.2-6.2,2.3-6.2,2.3l-5.7,2.7l-3.5,2.2c0,0-2.6,1.8-3.3,2.5
		c-0.7,0.7-2,1.8-2.7,2.7c-0.7,0.9-1.6,2-2.3,3.7c-0.7,1.6-1,2.5-1.1,3.9c-0.1,1.3-0.1,1.8-0.1,1.8h-2.9c0,0-0.1-4.7-2.5-7.8
		c-2.4-3.1-4.3-4.7-4.3-4.7l-2.4-1.8c0,0-2-1.2-2.7-1.6c-0.7-0.4-3.9-2-3.9-2l-3.7-1.6c0,0-4.8-1.8-5.4-2c-0.6-0.2-5.4-1.4-5.4-1.4
		l-3.9-1v-12.5H-388.5z"/>
</g>
<ellipse class="st0" cx="742.3" cy="644.7" rx="64.6" ry="64.6"/>
<path class="st4" d="M721.9,597.5c-14.9-14.9-40.7-24.4-50.7-14.4s-0.6,35.8,14.3,50.7c10.5,10.5,20.8,12.7,29.5,9.6
	c4.1-1.5,9.1,0,12.4,3.6l71.3,76.7c4.1,4.4,10.5,5.5,14.4,2.1c4.2-3.6,3.6-10.6-1-14.9l-77-71.5c-3.6-3.4-5.1-8.3-3.6-12.4
	C734.6,618.3,732.3,607.9,721.9,597.5z"/>
<path class="st5" d="M672.1,724.5c-0.9-0.9-1.3-2.1-1.3-3.6c0-2.7,1.5-5.6,4-7.9l73.3-68.8c4.6-4.4,7.7-9.9,8.5-15.3l0.7-4.6
	c0.6-4.4,3.2-9,7.1-12.7l37.1-35.4c0.9-0.9,2-1.1,2.4-0.7c0.5,0.5,0.2,1.6-0.7,2.5L768,613.2c-1.4,1.4-1.7,3.4-0.6,4.6
	c1.1,1.1,3.1,0.9,4.6-0.6l35.2-35.2c0.9-0.9,2.1-1.1,2.5-0.8c0.4,0.4,0.1,1.6-0.8,2.5L773.7,619c-1.4,1.4-1.7,3.4-0.6,4.6
	c1.1,1.1,3.1,0.9,4.6-0.6l35.2-35.2c0.9-0.9,2.1-1.1,2.5-0.8c0.4,0.4,0.1,1.6-0.8,2.5l-35.2,35.2c-1.4,1.4-1.7,3.4-0.6,4.6
	c1.1,1.1,3.1,0.9,4.6-0.6l35.2-35.2c0.9-0.9,2.1-1.1,2.5-0.8c0.4,0.4,0.2,1.5-0.6,2.4l-35.4,37.1c-3.7,3.9-8.3,6.4-12.7,7.1
	l-4.6,0.7c-5.4,0.8-10.9,3.9-15.3,8.5l-68.8,73.3c-2.3,2.5-5.3,3.9-7.9,4C674.2,725.8,673,725.4,672.1,724.5z"/>
<path id="SVGID_x5F_1_x5F__00000156584537296897605420000010231784192582856108_" class="st13" d="M-547.6,288
	c0-75.5,81.6-136.7,182.2-136.7c100.6,0,182.2,61.2,182.2,136.7s-81.6,136.7-182.2,136.7C-466,424.7-547.6,363.5-547.6,288z"/>
<text><textPath  xlink:href="#SVGID_x5F_1_x5F__00000156584537296897605420000010231784192582856108_" startOffset="73.698%">
<tspan  class="st6" style="font-family:'Oswald-Bold'; font-size:48.8067px;">                                  VITTLES          GROUP</tspan></textPath>
</text>
<g>
	<g>
		<path class="st6" d="M-179.3,330.1c-124.5,32.8-252.6,32.8-377.2,0c11.6-8.7,23-17.6,34.2-26.8c-5.7-13.1-11-26.2-16.1-39.6
			c112.8,29.6,228.1,29.6,340.9,0c-5.1,13.3-10.4,26.5-16.1,39.6C-202.3,312.5-190.9,321.4-179.3,330.1z"/>
		<g>
			<path class="st7" d="M-504.9,318.1c2-9.8,3-14.7,5-24.6c5.3,1.1,7.9,1.6,13.2,2.5c2.5,0.4,4.3,1,5.5,1.6c1.2,0.6,2.2,1.6,2.8,2.8
				c0.6,1.2,0.8,2.6,0.5,4.2c-0.2,1.4-0.7,2.5-1.5,3.4c-0.8,0.9-1.8,1.6-3,2c-0.8,0.3-1.8,0.4-3,0.5c0.9,0.5,1.6,0.9,2,1.3
				c0.3,0.3,0.6,0.8,1.1,1.5c0.5,0.8,0.8,1.3,0.9,1.7c1.1,3.1,1.7,4.7,2.8,7.8c-3.7-0.6-5.6-0.9-9.3-1.6c-1.2-3.3-1.8-5-3-8.3
				c-0.4-1.1-0.7-1.8-1.1-2.2c-0.5-0.5-1.1-0.8-1.9-0.9c-0.3-0.1-0.4-0.1-0.7-0.1c-0.8,4-1.1,6-1.9,10
				C-499.9,319.1-501.5,318.8-504.9,318.1z M-493.8,305.1c1.4,0.3,2,0.4,3.4,0.6c0.4,0.1,1.1,0.1,2.2,0.1c0.6,0,1-0.2,1.4-0.5
				c0.4-0.4,0.7-0.8,0.8-1.3c0.1-0.8,0-1.5-0.5-2c-0.5-0.5-1.4-0.9-2.9-1.2c-1.4-0.3-2.1-0.4-3.5-0.7
				C-493.2,302.1-493.4,303.1-493.8,305.1z"/>
			<path class="st7" d="M-472,298.6c8.6,1.4,12.8,2,21.4,3c-0.3,2.1-0.4,3.2-0.7,5.3c-5.4-0.7-8.1-1-13.5-1.8
				c-0.2,1.6-0.3,2.4-0.6,3.9c5,0.7,7.6,1.1,12.6,1.7c-0.3,2-0.4,3-0.6,5.1c-5.1-0.6-7.6-1-12.7-1.7c-0.3,2-0.4,2.9-0.7,4.9
				c5.7,0.8,8.5,1.2,14.2,1.9c-0.3,2.3-0.4,3.4-0.7,5.6c-9.1-1.1-13.6-1.8-22.6-3.2C-474.4,313.5-473.6,308.5-472,298.6z"/>
			<path class="st7" d="M-449.3,318.7c3.1,0.2,4.7,0.3,7.9,0.4c0,1.2,0.3,2.2,0.7,2.8c0.7,1.1,1.9,1.7,3.5,1.9
				c1.2,0.1,2.1,0,2.8-0.5c0.7-0.5,1.1-1,1.1-1.7c0.1-0.6-0.2-1.3-0.7-1.8c-0.6-0.6-1.9-1.2-4.1-1.9c-3.5-1.1-6-2.4-7.3-3.9
				c-1.4-1.4-2-3.1-1.7-5.1c0.2-1.3,0.7-2.4,1.6-3.5c0.9-1,2.2-1.8,3.8-2.3c1.6-0.5,3.8-0.6,6.5-0.3c3.3,0.3,5.8,1.2,7.4,2.5
				c1.6,1.3,2.5,3.3,2.6,5.9c-3.1-0.1-4.6-0.1-7.7-0.3c-0.1-1.1-0.4-2-1-2.6c-0.6-0.6-1.5-0.9-2.6-1c-0.9-0.1-1.7,0-2.2,0.3
				c-0.5,0.3-0.8,0.8-0.9,1.3c0,0.4,0.1,0.8,0.5,1.1c0.3,0.4,1.2,0.8,2.6,1.2c3.5,1.1,6,2.1,7.4,2.9c1.5,0.9,2.5,1.9,3.1,3.1
				c0.6,1.2,0.9,2.4,0.7,3.8c-0.1,1.6-0.7,3-1.8,4.3c-1.1,1.3-2.5,2.2-4.3,2.7c-1.8,0.5-4,0.7-6.6,0.4c-4.6-0.5-7.7-1.6-9.2-3.5
				C-448.6,323.4-449.4,321.2-449.3,318.7z"/>
			<path class="st7" d="M-421.5,304.6c9.8,0.8,14.7,1.1,24.4,1.5c-0.1,2.5-0.2,3.7-0.3,6.2c-3.3-0.1-5-0.2-8.3-0.4
				c-0.4,7.5-0.6,11.3-1.1,18.8c-3.3-0.2-5-0.3-8.3-0.5c0.5-7.5,0.8-11.3,1.3-18.8c-3.3-0.2-5-0.3-8.3-0.6
				C-421.8,308.3-421.7,307.1-421.5,304.6z"/>
			<path class="st7" d="M-380.2,327.6c-3.8-0.1-5.7-0.1-9.4-0.2c-0.6,1.6-0.9,2.5-1.4,4.1c-3.4-0.1-5.1-0.2-8.5-0.3
				c4.5-9.8,6.7-14.8,10.9-24.6c3.5,0.1,5.3,0.2,8.8,0.2c3.7,10.1,5.7,15.1,9.7,25.2c-3.5,0-5.3,0-8.8-0.1
				C-379.5,330.1-379.7,329.3-380.2,327.6z M-381.9,322.2c-1.1-3.6-1.6-5.4-2.7-9.1c-1.2,3.6-1.9,5.4-3.1,8.9
				C-385.4,322.1-384.2,322.1-381.9,322.2z"/>
			<path class="st7" d="M-351.9,306.6c3.2-0.1,4.8-0.1,8-0.2c0.2,6,0.3,9,0.5,14.9c0.1,1.5-0.1,2.9-0.6,4.2
				c-0.4,1.3-1.2,2.5-2.2,3.5c-1,1-2.1,1.7-3.3,2.2c-1.6,0.6-3.6,0.9-5.8,1c-1.3,0-2.8,0-4.3-0.2c-1.6-0.2-2.9-0.5-3.9-1
				c-1-0.5-2-1.2-2.9-2.1c-0.9-0.9-1.5-1.9-1.8-2.9c-0.5-1.6-0.8-3-0.8-4.2c0-6,0-9,0-14.9c3.2,0,4.8,0,8,0
				c0.1,6.1,0.1,9.2,0.2,15.3c0,1.4,0.4,2.4,1.2,3.2c0.8,0.8,2,1.1,3.4,1.1c1.4,0,2.5-0.4,3.3-1.2s1.2-1.9,1.1-3.2
				C-351.6,315.8-351.7,312.7-351.9,306.6z"/>
			<path class="st7" d="M-337.3,331.2c-0.4-10-0.7-15-1.1-25c5.4-0.2,8-0.4,13.4-0.7c2.5-0.2,4.4-0.1,5.7,0.2c1.3,0.3,2.5,1,3.4,2
				c0.9,1,1.4,2.4,1.5,4c0.1,1.4-0.1,2.6-0.7,3.7c-0.5,1.1-1.3,1.9-2.4,2.6c-0.7,0.5-1.6,0.9-2.8,1.2c1,0.2,1.7,0.5,2.2,0.8
				c0.3,0.2,0.8,0.6,1.4,1.2c0.6,0.6,1.1,1.1,1.3,1.5c1.8,2.8,2.7,4.2,4.6,6.9c-3.8,0.3-5.7,0.5-9.4,0.7c-2-2.9-3-4.4-4.9-7.3
				c-0.6-1-1.2-1.6-1.6-1.8c-0.6-0.4-1.3-0.5-2.1-0.5c-0.3,0-0.4,0-0.7,0c0.2,4.1,0.3,6.1,0.6,10.2
				C-332.2,330.9-333.9,331-337.3,331.2z M-329.7,315.9c1.4-0.1,2.1-0.1,3.4-0.2c0.4,0,1.1-0.2,2.1-0.5c0.5-0.1,1-0.4,1.3-0.9
				c0.3-0.4,0.5-0.9,0.4-1.5c-0.1-0.8-0.4-1.4-0.9-1.8c-0.6-0.4-1.6-0.5-3.1-0.5c-1.4,0.1-2.1,0.1-3.6,0.2
				C-329.9,312.8-329.8,313.8-329.7,315.9z"/>
			<path class="st7" d="M-291.9,323.5c-3.8,0.4-5.6,0.6-9.4,1c-0.4,1.7-0.5,2.5-0.9,4.2c-3.4,0.3-5.1,0.5-8.5,0.8
				c3.2-10.3,4.8-15.5,7.7-25.9c3.5-0.3,5.3-0.5,8.8-0.9c5,9.5,7.6,14.3,12.9,23.7c-3.5,0.4-5.2,0.6-8.7,1
				C-290.9,325.9-291.2,325.1-291.9,323.5z M-294.2,318.3c-1.6-3.5-2.3-5.2-3.9-8.6c-0.8,3.7-1.2,5.6-2,9.3
				C-297.7,318.7-296.6,318.6-294.2,318.3z"/>
			<path class="st7" d="M-282,301.2c3-0.4,4.5-0.6,7.5-1c4.7,4.9,7.1,7.4,11.9,12.2c-0.9-5.5-1.3-8.2-2.1-13.7
				c3-0.5,4.5-0.7,7.5-1.2c1.7,9.9,2.5,14.8,4.2,24.7c-3.1,0.5-4.7,0.8-7.8,1.3c-4.9-4.8-7.3-7.2-12-12.1c0.8,5.4,1.2,8.2,1.9,13.6
				c-3.1,0.4-4.7,0.7-7.8,1.1C-280,316.1-280.7,311.2-282,301.2z"/>
			<path class="st7" d="M-253.7,296.9c9.7-1.7,14.5-2.6,24.2-4.7c0.5,2.4,0.8,3.6,1.3,6.1c-3.3,0.7-4.9,1-8.2,1.7
				c1.5,7.4,2.2,11.1,3.7,18.5c-3.3,0.7-4.9,1-8.2,1.6c-1.4-7.4-2.1-11.1-3.5-18.5c-3.3,0.6-4.9,0.9-8.2,1.5
				C-253.1,300.6-253.3,299.4-253.7,296.9z"/>
		</g>
	</g>
</g>
<circle class="st6" cx="-564.1" cy="242.8" r="7.9"/>
<circle class="st6" cx="-177.7" cy="242.8" r="7.9"/>
<path class="st6" d="M-369.3,251.7L-396,138.2c3.9-1.8,7.3-4.6,9.7-8.3c3.3-5.1,4.5-11.2,3.3-17.2l-3.4-16.3c0,0,0,0,0,0l-8.6-33.6
	c-0.4-1.4-1.7-2.3-3.1-2c-1.5,0.2-2.5,1.7-2.3,3.1l4.8,30l-10.1,2.1l-7.4-29.5c-0.4-1.4-1.8-2.4-3.2-2.1c-1.6,0.3-2.6,1.7-2.4,3.3
	l4.9,30l-10.1,2.1l-7.5-29.5c-0.3-1.4-1.7-2.3-3.1-2c-1.5,0.2-2.5,1.7-2.3,3.1l5.5,34.2c0,0,0,0,0,0l3.4,16.3
	c2.2,10.6,11.5,18,22,18.2l20.7,114.7c0,0.1,0.1,0.3,0.1,0.4c1,4.3,5.4,7,9.7,6C-371,260.3-368.3,256-369.3,251.7z"/>
<path class="st8" d="M-300.1,61.5l-35.6,193.9c-0.6,3.5-4,5.8-7.4,5.1l0,0c-3.5-0.6-5.7-4-5.1-7.5l18.5-95.8c0,0-23.5-49.3,26-97.7
	C-302.2,58.1-299.7,59.4-300.1,61.5z"/>
<path class="st9" d="M-527.3,248.7c15.7-35.9,52.4-64.7,99.2-78.2"/>
<path class="st9" d="M-290.4,174.5c38.5,13.8,68.8,38.3,84.2,68.4"/>
<g>
	<text transform="matrix(1 0 0 1 -459.2728 396.7313)" class="st6 st16" style="font-size:37.7561px;">POS SYSTEM</text>
</g>
<polygon class="st6" points="-492.4,356.2 -487.7,370.6 -472.5,370.6 -484.8,379.6 -480.1,394 -492.4,385.1 -504.7,394 -500,379.6 
	-512.3,370.6 -497.1,370.6 "/>
<polygon class="st6" points="-245.8,356.2 -241.1,370.6 -225.9,370.6 -238.2,379.6 -233.5,394 -245.8,385.1 -258.1,394 
	-253.4,379.6 -265.7,370.6 -250.5,370.6 "/>
<polygon class="st6" points="-275.2,209.2 -270.5,223.6 -255.3,223.6 -267.6,232.6 -262.9,247 -275.2,238.1 -287.5,247 
	-282.8,232.6 -295.1,223.6 -279.9,223.6 "/>
<polygon class="st6" points="-449.8,209.2 -445.1,223.6 -429.9,223.6 -442.2,232.6 -437.5,247 -449.8,238.1 -462.1,247 
	-457.4,232.6 -469.7,223.6 -454.5,223.6 "/>
<line class="st9" x1="-453.6" y1="409.3" x2="-278.8" y2="409.3"/>
<line class="st10" x1="-493.4" y1="261.1" x2="-406.2" y2="261.1"/>
<line class="st10" x1="-318.8" y1="261.1" x2="-231.6" y2="261.1"/>
<ellipse class="st0" cx="-104.3" cy="511.1" rx="64.6" ry="64.6"/>
<path class="st11" d="M-124.8,463.9c-14.9-14.9-40.7-24.3-50.7-14.3s-0.6,35.8,14.3,50.7c10.5,10.5,20.8,12.7,29.5,9.6
	c4.1-1.5,9.1,0,12.4,3.6l71.3,76.7c4.1,4.4,10.5,5.5,14.4,2.1c4.2-3.6,3.6-10.6-1-14.9l-77-71.5c-3.6-3.4-5.1-8.3-3.6-12.4
	C-112.1,484.7-114.3,474.4-124.8,463.9z"/>
<path class="st12" d="M-174.5,590.9c-0.9-0.9-1.3-2.1-1.3-3.6c0-2.7,1.5-5.6,4-7.9l73.3-68.8c4.6-4.4,7.7-9.9,8.5-15.3l0.7-4.6
	c0.6-4.4,3.2-9,7.1-12.7l37.1-35.4c0.9-0.9,2-1.1,2.4-0.7c0.5,0.5,0.2,1.6-0.7,2.5l-35.2,35.2c-1.4,1.4-1.7,3.4-0.6,4.6
	c1.1,1.1,3.1,0.9,4.6-0.6l35.2-35.2c0.9-0.9,2.1-1.1,2.5-0.8c0.4,0.4,0.1,1.6-0.8,2.5l-35.2,35.2c-1.4,1.4-1.7,3.4-0.6,4.6
	c1.1,1.1,3.1,0.9,4.6-0.6l35.2-35.2c0.9-0.9,2.1-1.1,2.5-0.8c0.4,0.4,0.1,1.6-0.8,2.5l-35.3,35.3c-1.4,1.4-1.7,3.4-0.6,4.6
	c1.1,1.1,3.1,0.9,4.6-0.6l35.2-35.2c0.9-0.9,2.1-1.1,2.5-0.8c0.4,0.4,0.2,1.5-0.6,2.4l-35.4,37.1c-3.7,3.9-8.3,6.4-12.7,7.1
	l-4.6,0.7c-5.4,0.8-10.9,3.9-15.3,8.5l-68.8,73.3c-2.3,2.5-5.3,3.9-7.9,4C-172.4,592.3-173.7,591.8-174.5,590.9z"/>
<g>
	<path id="SVGID_x5F_00000072993032526758041950000016060105384653371035_x5F_" class="st13" d="M116.5,298.6
		c0-84.5,91.4-153,204-153c112.7,0,204,68.5,204,153s-91.4,153-204,153C207.9,451.6,116.5,383.1,116.5,298.6z"/>
	<text>	<textPath  xlink:href="#SVGID_x5F_00000072993032526758041950000016060105384653371035_x5F_" startOffset="73.698%">
<tspan  class="st4" style="font-family:'Oswald-Bold'; font-size:54.6475px;">                                  VITTLES          GROUP</tspan>	</textPath>
</text>
	<g>
		<g>
			<path class="st0" d="M528.9,345.7c-139.3,36.8-283,36.8-422.3,0c13.1-9.6,25.9-19.6,38.3-30c-6.5-14.6-12.4-29.4-18-44.3
				c126,33.2,255.6,33.2,381.6,0c-5.5,15-11.6,29.7-18,44.3C503,326,515.8,336.1,528.9,345.7z"/>
			<g>
				<path class="st0" d="M164.4,332.3c1.9-9.2,3.7-18.3,5.6-27.5c5.9,1.2,8.9,1.8,14.8,2.8c2.8,0.5,4.8,1.1,6.2,1.8
					c1.4,0.7,2.4,1.7,3.1,3.1c0.7,1.4,0.9,2.9,0.6,4.7c-0.3,1.5-0.8,2.8-1.7,3.8c-0.9,1-2,1.7-3.3,2.2c-0.9,0.3-2,0.5-3.4,0.5
					c1,0.5,1.8,1,2.2,1.4c0.3,0.3,0.7,0.9,1.2,1.7c0.5,0.9,0.8,1.5,1,1.9c1.2,3.5,1.9,5.3,3.1,8.8c-4.2-0.7-6.3-1-10.5-1.8
					c-1.4-3.7-2.1-5.6-3.4-9.3c-0.4-1.2-0.8-2-1.3-2.4c-0.6-0.5-1.3-0.9-2.1-1.1c-0.3-0.1-0.5-0.1-0.8-0.2
					c-0.8,4.5-1.3,6.7-2.1,11.2C169.9,333.4,168.1,333.1,164.4,332.3z M176.8,317.7c1.5,0.3,2.3,0.4,3.8,0.7
					c0.4,0.1,1.2,0.1,2.5,0.1c0.6,0,1.2-0.2,1.6-0.6c0.5-0.4,0.7-0.9,0.9-1.5c0.2-0.9,0-1.6-0.5-2.2c-0.5-0.6-1.6-1-3.2-1.3
					c-1.6-0.3-2.4-0.4-3.9-0.7C177.4,314.4,177.2,315.5,176.8,317.7z"/>
				<path class="st0" d="M201.1,310.4c9.6,1.5,14.4,2.2,24,3.4c-0.3,2.4-0.4,3.6-0.7,5.9c-6.1-0.8-9.1-1.2-15.2-2.1
					c-0.3,1.8-0.4,2.6-0.6,4.4c5.6,0.8,8.5,1.2,14.1,1.9c-0.3,2.3-0.4,3.4-0.7,5.7c-5.7-0.7-8.6-1.1-14.2-1.9
					c-0.3,2.2-0.5,3.3-0.8,5.5c6.4,0.9,9.5,1.4,15.9,2.2c-0.3,2.5-0.5,3.8-0.8,6.3c-10.2-1.3-15.2-2-25.3-3.6
					C198.2,328.9,199.7,319.7,201.1,310.4z"/>
				<path class="st0" d="M226.6,332.9c3.5,0.2,5.3,0.3,8.8,0.5c0,1.4,0.3,2.4,0.8,3.2c0.8,1.2,2.1,1.9,3.9,2.1
					c1.3,0.1,2.4-0.1,3.1-0.6c0.8-0.5,1.2-1.1,1.3-1.9c0.1-0.7-0.2-1.4-0.8-2c-0.6-0.6-2.1-1.3-4.5-2.1c-3.9-1.3-6.7-2.7-8.2-4.3
					c-1.6-1.6-2.2-3.5-1.9-5.7c0.2-1.4,0.8-2.7,1.8-3.9c1-1.2,2.4-2,4.3-2.6c1.8-0.5,4.2-0.6,7.3-0.3c3.7,0.4,6.5,1.3,8.3,2.8
					c1.8,1.5,2.8,3.7,2.9,6.6c-3.4-0.1-5.2-0.2-8.6-0.3c-0.1-1.3-0.5-2.2-1.2-2.9c-0.7-0.6-1.6-1-2.9-1.2c-1.1-0.1-1.9,0-2.4,0.4
					c-0.6,0.4-0.9,0.9-1,1.5c0,0.4,0.1,0.9,0.5,1.3c0.4,0.4,1.4,0.9,2.9,1.3c3.9,1.2,6.7,2.3,8.3,3.3c1.7,1,2.8,2.1,3.5,3.4
					c0.7,1.3,1,2.7,0.8,4.2c-0.2,1.8-0.8,3.4-2,4.8c-1.2,1.4-2.8,2.4-4.8,3c-2,0.6-4.5,0.8-7.4,0.5c-5.1-0.5-8.6-1.8-10.3-3.9
					C227.3,338.2,226.5,335.8,226.6,332.9z"/>
				<path class="st0" d="M257.7,317.2c10.9,0.9,16.4,1.2,27.4,1.7c-0.1,2.8-0.2,4.2-0.3,6.9c-3.7-0.2-5.6-0.3-9.3-0.5
					c-0.5,8.4-0.7,12.7-1.2,21.1c-3.7-0.2-5.6-0.3-9.3-0.6c0.6-8.4,0.9-12.6,1.4-21.1c-3.7-0.3-5.6-0.4-9.3-0.7
					C257.4,321.3,257.5,319.9,257.7,317.2z"/>
				<path class="st0" d="M303.9,342.9c-4.2-0.1-6.3-0.1-10.6-0.3c-0.6,1.8-1,2.7-1.6,4.6c-3.8-0.1-5.7-0.2-9.5-0.4
					c4.2-9.1,8.3-18.3,12.3-27.6c3.9,0.1,5.9,0.2,9.8,0.2c3.5,9.4,7.1,18.8,10.9,28.2c-3.9,0-5.9,0-9.8-0.1
					C304.7,345.7,304.5,344.8,303.9,342.9z M302.1,336.8c-1.2-4.1-1.8-6.1-3-10.2c-1.4,4-2.1,6-3.5,10
					C298.2,336.7,299.5,336.7,302.1,336.8z"/>
				<path class="st0" d="M335.7,319.4c3.6-0.1,5.4-0.1,9-0.3c0.2,6.7,0.4,10,0.6,16.7c0.1,1.7-0.2,3.2-0.7,4.7
					c-0.5,1.5-1.3,2.8-2.5,3.9c-1.2,1.1-2.4,2-3.7,2.4c-1.8,0.7-4,1-6.5,1.1c-1.5,0-3.1,0-4.8-0.2c-1.7-0.2-3.2-0.5-4.4-1.1
					c-1.2-0.6-2.2-1.4-3.2-2.4c-1-1-1.6-2.1-2-3.2c-0.6-1.8-0.9-3.4-0.9-4.7c0-6.7,0-10,0-16.7c3.6,0,5.4,0,9,0
					c0.1,6.8,0.1,10.3,0.2,17.1c0,1.5,0.5,2.7,1.4,3.6c0.9,0.8,2.2,1.3,3.8,1.2c1.6,0,2.8-0.5,3.7-1.3c0.9-0.9,1.3-2.1,1.3-3.6
					C335.9,329.7,335.8,326.2,335.7,319.4z"/>
				<path class="st0" d="M352,346.9c-0.4-9.3-0.8-18.7-1.2-28c6-0.3,9-0.4,15-0.8c2.8-0.2,4.9-0.1,6.4,0.2c1.5,0.4,2.8,1.1,3.8,2.3
					c1,1.2,1.6,2.6,1.7,4.4c0.1,1.6-0.1,2.9-0.7,4.1c-0.6,1.2-1.5,2.2-2.7,3c-0.8,0.5-1.8,1-3.1,1.3c1.1,0.3,1.9,0.6,2.5,0.9
					c0.4,0.2,0.9,0.7,1.6,1.4c0.7,0.7,1.2,1.2,1.4,1.6c2,3.1,3.1,4.7,5.1,7.7c-4.2,0.4-6.3,0.5-10.5,0.8c-2.2-3.3-3.3-4.9-5.5-8.2
					c-0.7-1.1-1.3-1.8-1.8-2.1c-0.7-0.4-1.5-0.6-2.3-0.5c-0.3,0-0.5,0-0.8,0c0.3,4.5,0.4,6.8,0.6,11.4
					C357.6,346.6,355.8,346.7,352,346.9z M360.5,329.8c1.5-0.1,2.3-0.1,3.9-0.2c0.4,0,1.2-0.2,2.4-0.5c0.6-0.2,1.1-0.5,1.4-1
					c0.4-0.5,0.5-1.1,0.5-1.7c-0.1-0.9-0.4-1.6-1-2c-0.6-0.4-1.8-0.6-3.4-0.5c-1.6,0.1-2.4,0.1-4,0.2
					C360.3,326.4,360.3,327.5,360.5,329.8z"/>
				<path class="st0" d="M402.8,338.3c-4.2,0.5-6.3,0.7-10.5,1.1c-0.4,1.9-0.6,2.9-1,4.8c-3.8,0.4-5.7,0.5-9.5,0.8
					c3-9.6,5.9-19.3,8.6-28.9c3.9-0.4,5.9-0.6,9.8-1c4.7,8.9,9.5,17.8,14.4,26.5c-3.9,0.5-5.8,0.7-9.7,1.2
					C404,341,403.6,340.1,402.8,338.3z M400.2,332.5c-1.7-3.9-2.6-5.8-4.3-9.7c-0.9,4.1-1.3,6.2-2.2,10.4
					C396.3,332.9,397.6,332.8,400.2,332.5z"/>
				<path class="st0" d="M413.9,313.4c3.3-0.4,5-0.7,8.4-1.1c5.2,5.5,7.9,8.3,13.3,13.7c-1-6.1-1.4-9.2-2.4-15.3
					c3.4-0.5,5.1-0.8,8.4-1.4c1.6,9.2,3.1,18.4,4.7,27.7c-3.5,0.6-5.2,0.9-8.7,1.4c-5.5-5.4-8.1-8.1-13.4-13.6
					c0.9,6.1,1.3,9.2,2.2,15.3c-3.5,0.5-5.2,0.7-8.7,1.2C416.4,331.9,415.2,322.7,413.9,313.4z"/>
				<path class="st0" d="M445.5,308.6c10.8-1.9,16.3-2.9,27-5.2c0.6,2.7,0.9,4.1,1.4,6.8c-3.7,0.8-5.5,1.2-9.1,1.9
					c1.7,8.3,2.5,12.4,4.1,20.7c-3.7,0.7-5.5,1.1-9.2,1.8c-1.6-8.3-2.3-12.5-3.9-20.8c-3.7,0.7-5.5,1-9.2,1.7
					C446.2,312.7,446,311.3,445.5,308.6z"/>
			</g>
		</g>
	</g>
	<circle class="st12" cx="98" cy="248" r="8.9"/>
	<circle class="st12" cx="530.7" cy="248" r="8.9"/>
	<path class="st14" d="M316.1,257.9l-29.9-127.1c4.4-2,8.1-5.1,10.8-9.2c3.7-5.7,5-12.5,3.7-19.2L297,84.1c0,0,0,0,0,0l-9.6-37.7
		c-0.4-1.5-1.9-2.5-3.5-2.3c-1.7,0.3-2.8,1.8-2.5,3.5l5.4,33.6l-11.3,2.3l-8.3-33c-0.4-1.6-2-2.7-3.6-2.4c-1.7,0.3-2.9,1.9-2.6,3.7
		l5.5,33.6l-11.3,2.3l-8.4-33c-0.4-1.5-1.9-2.5-3.5-2.3c-1.7,0.3-2.8,1.8-2.5,3.5l6.2,38.3c0,0,0,0,0,0l3.8,18.3
		c2.5,11.9,12.9,20.2,24.6,20.4l23.1,128.5c0,0.1,0.1,0.3,0.1,0.5c1.1,4.9,6,7.9,10.9,6.7C314.2,267.6,317.3,262.7,316.1,257.9z"/>
	<path class="st14" d="M393.7,44.9l-39.9,217.1c-0.7,3.9-4.4,6.4-8.3,5.7l0,0c-3.9-0.7-6.4-4.5-5.7-8.4l20.7-107.3
		c0,0-26.3-55.1,29.1-109.4C391.3,41.1,394.1,42.6,393.7,44.9z"/>
	<path class="st15" d="M139.2,254.6c17.6-40.2,58.7-72.4,111.1-87.6"/>
	<path class="st15" d="M404.4,171.4c43.1,15.5,77,42.9,94.3,76.5"/>
	<g>
		<text transform="matrix(1 0 0 1 215.4072 420.3066)" class="st11 st16 st17">POS SYSTEM</text>
	</g>
	<polygon class="st12" points="178.3,374.9 183.5,391.1 200.6,391.1 186.8,401.1 192.1,417.3 178.3,407.3 164.5,417.3 169.8,401.1 
		156,391.1 173,391.1 	"/>
	<polygon class="st12" points="454.4,374.9 459.7,391.1 476.7,391.1 462.9,401.1 468.2,417.3 454.4,407.3 440.6,417.3 445.9,401.1 
		432.1,391.1 449.1,391.1 	"/>
	<polygon class="st11" points="421.5,210.3 426.8,226.5 443.8,226.5 430,236.5 435.3,252.7 421.5,242.7 407.7,252.7 413,236.5 
		399.2,226.5 416.2,226.5 	"/>
	<polygon class="st11" points="226,210.3 231.2,226.5 248.3,226.5 234.5,236.5 239.8,252.7 226,242.7 212.2,252.7 217.5,236.5 
		203.7,226.5 220.7,226.5 	"/>
	<line class="st15" x1="221.7" y1="434.3" x2="417.5" y2="434.3"/>
	<line class="st18" x1="177.2" y1="268.4" x2="274.8" y2="268.4"/>
	<line class="st18" x1="372.7" y1="268.4" x2="470.3" y2="268.4"/>
	<g>
		<g>
			<path class="st11" d="M528.6,344.9c-139.3,36.8-283,36.8-422.3,0c13.1-9.6,25.9-19.6,38.3-30c-6.5-14.6-12.4-29.4-18-44.3
				c126,33.2,255.6,33.2,381.6,0c-5.5,15-11.6,29.7-18,44.3C502.8,325.3,515.5,335.3,528.6,344.9z"/>
			<g>
				<path class="st19" d="M164.1,331.5c1.9-9.2,3.7-18.3,5.6-27.5c5.9,1.2,8.9,1.8,14.8,2.8c2.8,0.5,4.8,1.1,6.2,1.8
					c1.4,0.7,2.4,1.7,3.1,3.1c0.7,1.4,0.9,2.9,0.6,4.7c-0.3,1.5-0.8,2.8-1.7,3.8c-0.9,1-2,1.7-3.3,2.2c-0.9,0.3-2,0.5-3.4,0.5
					c1,0.5,1.8,1,2.2,1.4c0.3,0.3,0.7,0.9,1.2,1.7c0.5,0.9,0.8,1.5,1,1.9c1.2,3.5,1.9,5.3,3.1,8.8c-4.2-0.7-6.3-1-10.5-1.8
					c-1.4-3.7-2.1-5.6-3.4-9.3c-0.4-1.2-0.8-2-1.3-2.4c-0.6-0.5-1.3-0.9-2.1-1.1c-0.3-0.1-0.5-0.1-0.8-0.2
					c-0.8,4.5-1.3,6.7-2.1,11.2C169.7,332.6,167.8,332.3,164.1,331.5z M176.5,317c1.5,0.3,2.3,0.4,3.8,0.7c0.4,0.1,1.2,0.1,2.5,0.1
					c0.6,0,1.2-0.2,1.6-0.6c0.5-0.4,0.7-0.9,0.9-1.5c0.2-0.9,0-1.6-0.5-2.2c-0.5-0.6-1.6-1-3.2-1.3c-1.6-0.3-2.4-0.4-3.9-0.7
					C177.1,313.6,176.9,314.7,176.5,317z"/>
				<path class="st19" d="M200.9,309.7c9.6,1.5,14.4,2.2,24,3.4c-0.3,2.4-0.4,3.6-0.7,5.9c-6.1-0.8-9.1-1.2-15.2-2.1
					c-0.3,1.8-0.4,2.6-0.6,4.4c5.6,0.8,8.5,1.2,14.1,1.9c-0.3,2.3-0.4,3.4-0.7,5.7c-5.7-0.7-8.6-1.1-14.2-1.9
					c-0.3,2.2-0.5,3.3-0.8,5.5c6.4,0.9,9.5,1.4,15.9,2.2c-0.3,2.5-0.5,3.8-0.8,6.3c-10.2-1.3-15.2-2-25.3-3.6
					C197.9,328.1,199.4,318.9,200.9,309.7z"/>
				<path class="st19" d="M226.3,332.2c3.5,0.2,5.3,0.3,8.8,0.5c0,1.4,0.3,2.4,0.8,3.2c0.8,1.2,2.1,1.9,3.9,2.1
					c1.3,0.1,2.4-0.1,3.1-0.6c0.8-0.5,1.2-1.1,1.3-1.9c0.1-0.7-0.2-1.4-0.8-2c-0.6-0.6-2.1-1.3-4.5-2.1c-3.9-1.3-6.7-2.7-8.2-4.3
					c-1.6-1.6-2.2-3.5-1.9-5.7c0.2-1.4,0.8-2.7,1.8-3.9c1-1.2,2.4-2,4.3-2.6c1.8-0.5,4.2-0.6,7.3-0.3c3.7,0.4,6.5,1.3,8.3,2.8
					c1.8,1.5,2.8,3.7,2.9,6.6c-3.4-0.1-5.2-0.2-8.6-0.3c-0.1-1.3-0.5-2.2-1.2-2.9c-0.7-0.6-1.6-1-2.9-1.2c-1.1-0.1-1.9,0-2.4,0.4
					c-0.6,0.4-0.9,0.9-1,1.5c0,0.4,0.1,0.9,0.5,1.3c0.4,0.4,1.4,0.9,2.9,1.3c3.9,1.2,6.7,2.3,8.3,3.3c1.7,1,2.8,2.1,3.5,3.4
					c0.7,1.3,1,2.7,0.8,4.2c-0.2,1.8-0.8,3.4-2,4.8c-1.2,1.4-2.8,2.4-4.8,3c-2,0.6-4.5,0.8-7.4,0.5c-5.1-0.5-8.6-1.8-10.3-3.9
					S226.2,335,226.3,332.2z"/>
				<path class="st19" d="M257.4,316.4c10.9,0.9,16.4,1.2,27.4,1.7c-0.1,2.8-0.2,4.2-0.3,6.9c-3.7-0.2-5.6-0.3-9.3-0.5
					c-0.5,8.4-0.7,12.7-1.2,21.1c-3.7-0.2-5.6-0.3-9.3-0.6c0.6-8.4,0.9-12.6,1.4-21.1c-3.7-0.3-5.6-0.4-9.3-0.7
					C257.1,320.6,257.2,319.2,257.4,316.4z"/>
				<path class="st19" d="M303.6,342.1c-4.2-0.1-6.3-0.1-10.6-0.3c-0.6,1.8-1,2.7-1.6,4.6c-3.8-0.1-5.7-0.2-9.5-0.4
					c4.2-9.1,8.3-18.3,12.3-27.6c3.9,0.1,5.9,0.2,9.8,0.2c3.5,9.4,7.1,18.8,10.9,28.2c-3.9,0-5.9,0-9.8-0.1
					C304.5,344.9,304.2,344,303.6,342.1z M301.8,336c-1.2-4.1-1.8-6.1-3-10.2c-1.4,4-2.1,6-3.5,10C297.9,335.9,299.2,336,301.8,336z
					"/>
				<path class="st19" d="M335.4,318.6c3.6-0.1,5.4-0.1,9-0.3c0.2,6.7,0.4,10,0.6,16.7c0.1,1.7-0.2,3.2-0.7,4.7
					c-0.5,1.5-1.3,2.8-2.5,3.9c-1.2,1.1-2.4,2-3.7,2.4c-1.8,0.7-4,1-6.5,1.1c-1.5,0-3.1,0-4.8-0.2c-1.7-0.2-3.2-0.5-4.4-1.1
					c-1.2-0.6-2.2-1.4-3.2-2.4c-1-1-1.6-2.1-2-3.2c-0.6-1.8-0.9-3.4-0.9-4.7c0-6.7,0-10,0-16.7c3.6,0,5.4,0,9,0
					c0.1,6.8,0.1,10.3,0.2,17.1c0,1.5,0.5,2.7,1.4,3.6c0.9,0.8,2.2,1.3,3.8,1.2c1.6,0,2.8-0.5,3.7-1.3c0.9-0.9,1.3-2.1,1.3-3.6
					C335.7,328.9,335.6,325.5,335.4,318.6z"/>
				<path class="st19" d="M351.7,346.1c-0.4-9.3-0.8-18.7-1.2-28c6-0.3,9-0.4,15-0.8c2.8-0.2,4.9-0.1,6.4,0.2
					c1.5,0.4,2.8,1.1,3.8,2.3c1,1.2,1.6,2.6,1.7,4.4c0.1,1.6-0.1,2.9-0.7,4.1c-0.6,1.2-1.5,2.2-2.7,3c-0.8,0.5-1.8,1-3.1,1.3
					c1.1,0.3,1.9,0.6,2.5,0.9c0.4,0.2,0.9,0.7,1.6,1.4c0.7,0.7,1.2,1.2,1.4,1.6c2,3.1,3.1,4.7,5.1,7.7c-4.2,0.3-6.3,0.5-10.5,0.8
					c-2.2-3.3-3.3-4.9-5.5-8.2c-0.7-1.1-1.3-1.8-1.8-2.1c-0.7-0.4-1.5-0.6-2.3-0.5c-0.3,0-0.5,0-0.8,0c0.3,4.5,0.4,6.8,0.6,11.4
					C357.4,345.9,355.5,346,351.7,346.1z M360.2,329c1.5-0.1,2.3-0.1,3.9-0.2c0.4,0,1.2-0.2,2.4-0.5c0.6-0.2,1.1-0.5,1.4-1
					c0.4-0.5,0.5-1.1,0.5-1.7c-0.1-0.9-0.4-1.6-1-2c-0.6-0.4-1.8-0.6-3.4-0.5c-1.6,0.1-2.4,0.1-4,0.2C360,325.6,360,326.7,360.2,329
					z"/>
				<path class="st19" d="M402.5,337.5c-4.2,0.5-6.3,0.7-10.5,1.1c-0.4,1.9-0.6,2.9-1,4.8c-3.8,0.4-5.7,0.5-9.5,0.8
					c3-9.6,5.9-19.3,8.6-28.9c3.9-0.4,5.9-0.6,9.8-1c4.7,8.9,9.5,17.8,14.4,26.5c-3.9,0.5-5.8,0.7-9.7,1.2
					C403.7,340.2,403.3,339.3,402.5,337.5z M399.9,331.7c-1.7-3.9-2.6-5.8-4.3-9.7c-0.9,4.1-1.3,6.2-2.2,10.4
					C396,332.1,397.3,332,399.9,331.7z"/>
				<path class="st19" d="M413.7,312.6c3.3-0.4,5-0.7,8.4-1.1c5.2,5.5,7.9,8.3,13.3,13.7c-1-6.1-1.4-9.2-2.4-15.3
					c3.4-0.5,5.1-0.8,8.4-1.4c1.6,9.2,3.1,18.4,4.7,27.7c-3.5,0.6-5.2,0.9-8.7,1.4c-5.5-5.4-8.1-8.1-13.4-13.6
					c0.9,6.1,1.3,9.2,2.2,15.3c-3.5,0.5-5.2,0.7-8.7,1.2C416.1,331.1,414.9,321.9,413.7,312.6z"/>
				<path class="st19" d="M445.3,307.8c10.8-1.9,16.3-2.9,27-5.2c0.6,2.7,0.9,4.1,1.4,6.8c-3.7,0.8-5.5,1.2-9.1,1.9
					c1.7,8.3,2.5,12.4,4.1,20.7c-3.7,0.7-5.5,1.1-9.2,1.8c-1.6-8.3-2.3-12.5-3.9-20.8c-3.7,0.7-5.5,1-9.2,1.7
					C446,311.9,445.7,310.5,445.3,307.8z"/>
			</g>
		</g>
	</g>
</g>
<text transform="matrix(1 0 0 1 654.4097 228.1091)" class="st4 st20 st21">VITTLES RESTAURANT GROUP</text>
<text transform="matrix(1 0 0 1 743.8062 295.3448)" class="st11 st22 st23">POINT OF SALE SYSTEM</text>
<polygon class="st12" points="1299.9,259.2 1304.6,273.7 1319.8,273.7 1307.5,282.6 1312.2,297.1 1299.9,288.1 1287.6,297.1 
	1292.3,282.6 1280,273.7 1295.2,273.7 "/>
<polygon class="st12" points="695.7,259.2 700.4,273.7 715.6,273.7 703.3,282.6 708,297.1 695.7,288.1 683.4,297.1 688.1,282.6 
	675.8,273.7 691,273.7 "/>
</svg>
